<svg width="436" height="322" viewBox="0 0 436 322" fill="none" xmlns="http://www.w3.org/2000/svg">
	<path d="M245.917 37.8334H18.9167C13.8997 37.8334 9.08813 39.8264 5.54056 43.3739C1.993 46.9215 0 51.733 0 56.75V227H264.833V56.75C264.833 51.733 262.84 46.9215 259.293 43.3739C255.745 39.8264 250.934 37.8334 245.917 37.8334ZM103.285 98.1775C102.15 100.826 103.285 99.2179 82.3821 120.215C81.5002 121.097 80.4533 121.797 79.301 122.274C78.1488 122.751 76.9138 122.997 75.6667 122.997C74.4195 122.997 73.1845 122.751 72.0323 122.274C70.8801 121.797 69.8331 121.097 68.9513 120.215C68.0694 119.334 67.3698 118.287 66.8926 117.134C66.4153 115.982 66.1696 114.747 66.1696 113.5C66.1696 112.253 66.4153 111.018 66.8926 109.866C67.3698 108.713 68.0694 107.667 68.9513 106.785L71.7888 104.042H37.8333C35.3248 104.042 32.9191 103.045 31.1453 101.271C29.3715 99.4977 28.375 97.0919 28.375 94.5834C28.375 92.0749 29.3715 89.6691 31.1453 87.8953C32.9191 86.1215 35.3248 85.125 37.8333 85.125H71.7888L68.9513 82.3821C67.1702 80.6011 66.1696 78.1855 66.1696 75.6667C66.1696 73.1479 67.1702 70.7323 68.9513 68.9513C70.7323 67.1702 73.1479 66.1697 75.6667 66.1697C78.1854 66.1697 80.6011 67.1702 82.3821 68.9513L101.299 87.868C102.611 89.198 103.5 90.887 103.854 92.7218C104.207 94.5567 104.009 96.4551 103.285 98.1775Z" fill="#2563EB" />
	<path d="M33.4825 245.917C24.08 256.271 18.885 269.764 18.9167 283.75C13.8997 283.75 9.08813 281.757 5.54056 278.209C1.993 274.662 0 269.85 0 264.833V245.917H33.4825ZM264.833 245.917V283.75H132.417C132.448 269.764 127.253 256.271 117.851 245.917H264.833Z" fill="#3F3F44" />
	<path d="M426.855 179.708H340.5V113.5H368.875L426.855 179.708Z" fill="#2563EB" />
	<path d="M425.625 236.458H435.083V264.833C435.083 269.85 433.09 274.662 429.543 278.209C425.995 281.757 421.184 283.75 416.167 283.75C416.167 268.699 410.188 254.264 399.545 243.622C388.902 232.979 374.468 227 359.417 227C344.366 227 329.931 232.979 319.288 243.622C308.646 254.264 302.667 268.699 302.667 283.75H283.75V113.5H321.583V189.167C321.583 191.675 322.58 194.081 324.354 195.855C326.127 197.629 328.533 198.625 331.042 198.625H435.083V217.542H425.625C423.117 217.542 420.711 218.538 418.937 220.312C417.163 222.086 416.167 224.491 416.167 227C416.167 229.508 417.163 231.914 418.937 233.688C420.711 235.462 423.117 236.458 425.625 236.458Z" fill="#3F3F44" />
	<path d="M390.75 283.75C390.75 301.055 376.722 315.083 359.417 315.083C342.112 315.083 328.083 301.055 328.083 283.75C328.083 266.445 342.112 252.417 359.417 252.417C376.722 252.417 390.75 266.445 390.75 283.75Z" stroke="#3F3F44" stroke-width="13" />
	<path d="M107 283.75C107 301.055 92.9716 315.083 75.6667 315.083C58.3618 315.083 44.3334 301.055 44.3334 283.75C44.3334 266.445 58.3618 252.417 75.6667 252.417C92.9716 252.417 107 266.445 107 283.75Z" stroke="#3F3F44" stroke-width="13" />
	<path d="M170.25 0H75.6667C73.1582 0 70.7524 0.996502 68.9786 2.77028C67.2048 4.54407 66.2083 6.94983 66.2083 9.45833C66.2083 11.9668 67.2048 14.3726 68.9786 16.1464C70.7524 17.9202 73.1582 18.9167 75.6667 18.9167H170.25C172.759 18.9167 175.164 17.9202 176.938 16.1464C178.712 14.3726 179.708 11.9668 179.708 9.45833C179.708 6.94983 178.712 4.54407 176.938 2.77028C175.164 0.996502 172.759 0 170.25 0ZM37.8333 0H9.45833C6.94983 0 4.54406 0.996502 2.77028 2.77028C0.9965 4.54407 0 6.94983 0 9.45833C0 11.9668 0.9965 14.3726 2.77028 16.1464C4.54406 17.9202 6.94983 18.9167 9.45833 18.9167H37.8333C40.3418 18.9167 42.7476 17.9202 44.5214 16.1464C46.2952 14.3726 47.2917 11.9668 47.2917 9.45833C47.2917 6.94983 46.2952 4.54407 44.5214 2.77028C42.7476 0.996502 40.3418 0 37.8333 0Z" fill="#3F3F44" />
</svg>
