<svg width="14" height="14" viewBox="0 0 14 14" fill="none" xmlns="http://www.w3.org/2000/svg">
<path d="M10.2169 9.01916H9.57123L9.3424 8.79863C9.85315 8.20562 10.2264 7.50712 10.4355 6.75311C10.6446 5.99909 10.6844 5.20821 10.5519 4.43705C10.1678 2.16641 8.2718 0.353166 5.98348 0.0754619C5.17899 -0.0262547 4.36188 0.0573063 3.59467 0.319751C2.82746 0.582195 2.13049 1.01657 1.55709 1.58963C0.983696 2.16269 0.54907 2.85925 0.286471 3.62601C0.0238731 4.39277 -0.0597369 5.2094 0.0420393 6.01342C0.319906 8.3004 2.13421 10.1953 4.40618 10.5792C5.1778 10.7116 5.96915 10.6718 6.7236 10.4629C7.47806 10.2539 8.17697 9.88082 8.77032 9.37037L8.99098 9.59907V10.2443L12.4643 13.7156C12.7994 14.0505 13.347 14.0505 13.682 13.7156C14.0171 13.3807 14.0171 12.8335 13.682 12.4986L10.2169 9.01916ZM5.31334 9.01916C3.27837 9.01916 1.63569 7.37744 1.63569 5.34367C1.63569 3.3099 3.27837 1.66818 5.31334 1.66818C7.3483 1.66818 8.99098 3.3099 8.99098 5.34367C8.99098 7.37744 7.3483 9.01916 5.31334 9.01916Z" fill="#4A4A4A"/>
</svg>
